<svg fill="none" height="16" viewBox="0 0 16 16" width="16" xmlns="http://www.w3.org/2000/svg"><path d="m0 0h16v16h-16z" fill="#fff"/><path clip-rule="evenodd" d="m5.49752 3.08307 2.08308-2.08307c1.43022 1.43023 2.33113 3.19091 2.7017 5.03696.6318 3.14068-.2691 6.53044-2.7017 8.96304l-2.10819-2.1072c.01507-.0151.02917-.0301.04424-.0442 2.68969-2.6897 2.68969-7.05673 0-9.74645-.00603-.00703-.0131-.01305-.01913-.01908zm5.66068 8.36443c.5925-1.82795.701-3.77845.3254-5.65161-.0854-.42384-.1959-.84368-.3305-1.25748 1.1008 1.08774 3.1216 3.08644 3.4762 3.43697zm-6.36472-7.66036c.00603.00603.01305.01305.01908.01908 2.32812 2.32914 2.33314 6.1066.01505 8.44178l-1.48443-1.4845c1.49952-1.51557 1.49451-3.96324-.01506-5.47281-.00602-.00703-.01305-.01305-.01907-.01908zm-2.11417 2.11422c1.15502 1.16005 1.15502 3.03823 0 4.19724l-1.23742-1.23635c.47306-.47708.47306-1.24742 0-1.7235z" fill="#000" fill-rule="evenodd"/></svg>