<svg width="48" height="48" viewBox="0 0 48 48" fill="none" xmlns="http://www.w3.org/2000/svg">
<rect width="48" height="48" rx="12" fill="#C1BC7A"/>
<path d="M15.8687 13.5812C15.8687 12.1776 17.0402 10.9998 18.5353 10.9998H29.202C30.697 10.9998 31.8687 12.1775 31.8687 13.5812V34.4183C31.8687 35.8219 30.6971 36.9998 29.202 36.9998H18.5353C17.0403 36.9998 15.8687 35.822 15.8687 34.4183V13.5812Z" stroke="black" stroke-width="2"/>
<path d="M32.4858 25.2787V22.7205H32.742V25.2787H32.4858Z" fill="black" stroke="black" stroke-width="2"/>
<path d="M14.5654 25.2787V22.7205H15.8216V25.2787H14.5654Z" fill="black" stroke="black" stroke-width="2"/>
<path d="M25.6372 15.5346C25.6372 14.8283 26.2098 14.2556 26.9165 14.2556C27.6231 14.2556 28.1957 14.8283 28.1957 15.5346C28.1957 16.2409 27.6231 16.8136 26.9165 16.8136C26.2098 16.8136 25.6372 16.2409 25.6372 15.5346Z" fill="black" stroke="black" stroke-width="2"/>
<path d="M19.1357 15.5346C19.1357 14.8283 19.7084 14.2556 20.415 14.2556C21.1216 14.2556 21.6943 14.8283 21.6943 15.5346C21.6943 16.2409 21.1216 16.8136 20.415 16.8136C19.7084 16.8136 19.1357 16.2409 19.1357 15.5346Z" fill="black" stroke="black" stroke-width="2"/>
<circle cx="24.0005" cy="30" r="2" fill="black" stroke="black" stroke-width="2"/>
<line x1="32.002" y1="19.9995" x2="15.002" y2="19.9995" stroke="black" stroke-width="2"/>
</svg>
