<svg width="48" height="48" viewBox="0 0 48 48" fill="none" xmlns="http://www.w3.org/2000/svg">
<path d="M14.04 22.288C14.7333 22.288 15.2827 22.4773 15.688 22.856C16.0933 23.2293 16.296 23.7467 16.296 24.408C16.296 25.0747 16.0933 25.5973 15.688 25.976C15.2827 26.3493 14.7333 26.536 14.04 26.536H11.208V28H9.552V22.288H14.04ZM13.584 25.128C13.792 25.128 13.96 25.1173 14.088 25.096C14.2213 25.0693 14.3333 25.0053 14.424 24.904C14.52 24.7973 14.568 24.632 14.568 24.408C14.568 24.1893 14.52 24.0293 14.424 23.928C14.3333 23.8213 14.2213 23.7573 14.088 23.736C13.96 23.7093 13.792 23.696 13.584 23.696H11.208V25.128H13.584ZM24.1009 28H22.3249L21.7809 26.92H18.2609L17.7169 28H15.9329L18.8769 22.288H21.1649L24.1009 28ZM20.0209 23.448L18.8929 25.68H21.1489L20.0209 23.448ZM24.097 25.136C24.097 24.16 24.401 23.416 25.009 22.904C25.6223 22.3867 26.5023 22.128 27.649 22.128C28.6837 22.128 29.497 22.3387 30.089 22.76C30.6863 23.176 31.0277 23.7573 31.113 24.504H29.353C29.2943 24.2213 29.121 23.9893 28.833 23.808C28.545 23.6267 28.1503 23.536 27.649 23.536C27.0463 23.536 26.593 23.6747 26.289 23.952C25.985 24.2293 25.833 24.624 25.833 25.136C25.833 25.648 25.985 26.0453 26.289 26.328C26.5983 26.6107 27.0517 26.752 27.649 26.752C28.1503 26.752 28.545 26.6613 28.833 26.48C29.121 26.2933 29.2943 26.056 29.353 25.768H31.113C31.0277 26.52 30.6863 27.1067 30.089 27.528C29.497 27.9493 28.6837 28.16 27.649 28.16C26.5023 28.16 25.6223 27.9013 25.009 27.384C24.401 26.8667 24.097 26.1173 24.097 25.136ZM36.6688 22.288H39.1488L36.2688 24.68L39.1488 28H37.0688L35.0688 25.68L33.6768 26.84V28H32.0208V22.288H33.6768V24.848L36.6688 22.288Z" fill="white"/>
<path opacity="0.4" d="M14.04 15.288C14.7333 15.288 15.2827 15.4773 15.688 15.856C16.0933 16.2293 16.296 16.7467 16.296 17.408C16.296 18.0747 16.0933 18.5973 15.688 18.976C15.2827 19.3493 14.7333 19.536 14.04 19.536H11.208V21H9.552V15.288H14.04ZM13.584 18.128C13.792 18.128 13.96 18.1173 14.088 18.096C14.2213 18.0693 14.3333 18.0053 14.424 17.904C14.52 17.7973 14.568 17.632 14.568 17.408C14.568 17.1893 14.52 17.0293 14.424 16.928C14.3333 16.8213 14.2213 16.7573 14.088 16.736C13.96 16.7093 13.792 16.696 13.584 16.696H11.208V18.128H13.584ZM24.1009 21H22.3249L21.7809 19.92H18.2609L17.7169 21H15.9329L18.8769 15.288H21.1649L24.1009 21ZM20.0209 16.448L18.8929 18.68H21.1489L20.0209 16.448ZM24.097 18.136C24.097 17.16 24.401 16.416 25.009 15.904C25.6223 15.3867 26.5023 15.128 27.649 15.128C28.6837 15.128 29.497 15.3387 30.089 15.76C30.6863 16.176 31.0277 16.7573 31.113 17.504H29.353C29.2943 17.2213 29.121 16.9893 28.833 16.808C28.545 16.6267 28.1503 16.536 27.649 16.536C27.0463 16.536 26.593 16.6747 26.289 16.952C25.985 17.2293 25.833 17.624 25.833 18.136C25.833 18.648 25.985 19.0453 26.289 19.328C26.5983 19.6107 27.0517 19.752 27.649 19.752C28.1503 19.752 28.545 19.6613 28.833 19.48C29.121 19.2933 29.2943 19.056 29.353 18.768H31.113C31.0277 19.52 30.6863 20.1067 30.089 20.528C29.497 20.9493 28.6837 21.16 27.649 21.16C26.5023 21.16 25.6223 20.9013 25.009 20.384C24.401 19.8667 24.097 19.1173 24.097 18.136ZM36.6688 15.288H39.1488L36.2688 17.68L39.1488 21H37.0688L35.0688 18.68L33.6768 19.84V21H32.0208V15.288H33.6768V17.848L36.6688 15.288Z" fill="white"/>
<path opacity="0.1" d="M14.04 8.288C14.7333 8.288 15.2827 8.47733 15.688 8.856C16.0933 9.22933 16.296 9.74667 16.296 10.408C16.296 11.0747 16.0933 11.5973 15.688 11.976C15.2827 12.3493 14.7333 12.536 14.04 12.536H11.208V14H9.552V8.288H14.04ZM13.584 11.128C13.792 11.128 13.96 11.1173 14.088 11.096C14.2213 11.0693 14.3333 11.0053 14.424 10.904C14.52 10.7973 14.568 10.632 14.568 10.408C14.568 10.1893 14.52 10.0293 14.424 9.928C14.3333 9.82133 14.2213 9.75733 14.088 9.736C13.96 9.70933 13.792 9.696 13.584 9.696H11.208V11.128H13.584ZM24.1009 14H22.3249L21.7809 12.92H18.2609L17.7169 14H15.9329L18.8769 8.288H21.1649L24.1009 14ZM20.0209 9.448L18.8929 11.68H21.1489L20.0209 9.448ZM24.097 11.136C24.097 10.16 24.401 9.416 25.009 8.904C25.6223 8.38667 26.5023 8.128 27.649 8.128C28.6837 8.128 29.497 8.33867 30.089 8.76C30.6863 9.176 31.0277 9.75733 31.113 10.504H29.353C29.2943 10.2213 29.121 9.98933 28.833 9.808C28.545 9.62667 28.1503 9.536 27.649 9.536C27.0463 9.536 26.593 9.67467 26.289 9.952C25.985 10.2293 25.833 10.624 25.833 11.136C25.833 11.648 25.985 12.0453 26.289 12.328C26.5983 12.6107 27.0517 12.752 27.649 12.752C28.1503 12.752 28.545 12.6613 28.833 12.48C29.121 12.2933 29.2943 12.056 29.353 11.768H31.113C31.0277 12.52 30.6863 13.1067 30.089 13.528C29.497 13.9493 28.6837 14.16 27.649 14.16C26.5023 14.16 25.6223 13.9013 25.009 13.384C24.401 12.8667 24.097 12.1173 24.097 11.136ZM36.6688 8.288H39.1488L36.2688 10.68L39.1488 14H37.0688L35.0688 11.68L33.6768 12.84V14H32.0208V8.288H33.6768V10.848L36.6688 8.288Z" fill="white"/>
<path opacity="0.4" d="M14.04 29.288C14.7333 29.288 15.2827 29.4773 15.688 29.856C16.0933 30.2293 16.296 30.7467 16.296 31.408C16.296 32.0747 16.0933 32.5973 15.688 32.976C15.2827 33.3493 14.7333 33.536 14.04 33.536H11.208V35H9.552V29.288H14.04ZM13.584 32.128C13.792 32.128 13.96 32.1173 14.088 32.096C14.2213 32.0693 14.3333 32.0053 14.424 31.904C14.52 31.7973 14.568 31.632 14.568 31.408C14.568 31.1893 14.52 31.0293 14.424 30.928C14.3333 30.8213 14.2213 30.7573 14.088 30.736C13.96 30.7093 13.792 30.696 13.584 30.696H11.208V32.128H13.584ZM24.1009 35H22.3249L21.7809 33.92H18.2609L17.7169 35H15.9329L18.8769 29.288H21.1649L24.1009 35ZM20.0209 30.448L18.8929 32.68H21.1489L20.0209 30.448ZM24.097 32.136C24.097 31.16 24.401 30.416 25.009 29.904C25.6223 29.3867 26.5023 29.128 27.649 29.128C28.6837 29.128 29.497 29.3387 30.089 29.76C30.6863 30.176 31.0277 30.7573 31.113 31.504H29.353C29.2943 31.2213 29.121 30.9893 28.833 30.808C28.545 30.6267 28.1503 30.536 27.649 30.536C27.0463 30.536 26.593 30.6747 26.289 30.952C25.985 31.2293 25.833 31.624 25.833 32.136C25.833 32.648 25.985 33.0453 26.289 33.328C26.5983 33.6107 27.0517 33.752 27.649 33.752C28.1503 33.752 28.545 33.6613 28.833 33.48C29.121 33.2933 29.2943 33.056 29.353 32.768H31.113C31.0277 33.52 30.6863 34.1067 30.089 34.528C29.497 34.9493 28.6837 35.16 27.649 35.16C26.5023 35.16 25.6223 34.9013 25.009 34.384C24.401 33.8667 24.097 33.1173 24.097 32.136ZM36.6688 29.288H39.1488L36.2688 31.68L39.1488 35H37.0688L35.0688 32.68L33.6768 33.84V35H32.0208V29.288H33.6768V31.848L36.6688 29.288Z" fill="white"/>
<path opacity="0.1" d="M14.04 36.288C14.7333 36.288 15.2827 36.4773 15.688 36.856C16.0933 37.2293 16.296 37.7467 16.296 38.408C16.296 39.0747 16.0933 39.5973 15.688 39.976C15.2827 40.3493 14.7333 40.536 14.04 40.536H11.208V42H9.552V36.288H14.04ZM13.584 39.128C13.792 39.128 13.96 39.1173 14.088 39.096C14.2213 39.0693 14.3333 39.0053 14.424 38.904C14.52 38.7973 14.568 38.632 14.568 38.408C14.568 38.1893 14.52 38.0293 14.424 37.928C14.3333 37.8213 14.2213 37.7573 14.088 37.736C13.96 37.7093 13.792 37.696 13.584 37.696H11.208V39.128H13.584ZM24.1009 42H22.3249L21.7809 40.92H18.2609L17.7169 42H15.9329L18.8769 36.288H21.1649L24.1009 42ZM20.0209 37.448L18.8929 39.68H21.1489L20.0209 37.448ZM24.097 39.136C24.097 38.16 24.401 37.416 25.009 36.904C25.6223 36.3867 26.5023 36.128 27.649 36.128C28.6837 36.128 29.497 36.3387 30.089 36.76C30.6863 37.176 31.0277 37.7573 31.113 38.504H29.353C29.2943 38.2213 29.121 37.9893 28.833 37.808C28.545 37.6267 28.1503 37.536 27.649 37.536C27.0463 37.536 26.593 37.6747 26.289 37.952C25.985 38.2293 25.833 38.624 25.833 39.136C25.833 39.648 25.985 40.0453 26.289 40.328C26.5983 40.6107 27.0517 40.752 27.649 40.752C28.1503 40.752 28.545 40.6613 28.833 40.48C29.121 40.2933 29.2943 40.056 29.353 39.768H31.113C31.0277 40.52 30.6863 41.1067 30.089 41.528C29.497 41.9493 28.6837 42.16 27.649 42.16C26.5023 42.16 25.6223 41.9013 25.009 41.384C24.401 40.8667 24.097 40.1173 24.097 39.136ZM36.6688 36.288H39.1488L36.2688 38.68L39.1488 42H37.0688L35.0688 39.68L33.6768 40.84V42H32.0208V36.288H33.6768V38.848L36.6688 36.288Z" fill="white"/>
</svg>
